<svg width="400" height="80" id="Calque_1" xmlns="http://www.w3.org/2000/svg" viewBox="0 0 316.7 70.3"><style>.st0{fill:#fff}</style><path class="st0" d="M75 5.5c1 4.2 1.1 4.9 1.7 9.4h-1c-1.6-3.4-2.3-4.7-3.4-5.7-1.3-1.3-3.5-2.1-5.7-2.1-5.7 0-9.1 4.2-9.1 11.5 0 4.5 1.1 7.8 3.5 10.4 2 2.3 4.7 3.6 7.4 3.6 3.1 0 5.8-1.5 7.5-4.2l1.4.8c-2.5 4-6.2 5.9-11.5 5.9-8.8 0-14.8-6-14.8-14.7S57.4 5.5 66.6 5.5c1.5 0 2.7.1 4.5.5.9.2 1.2.3 1.6.3.7 0 .9-.2 1.2-.8H75zm29.3 13.9v-6.9c0-2.8 0-3.6-.3-4.5-.1-.4-.2-.4-.8-.5l-3.8-.3v-1h16v1l-4.3.3c-.6 0-.7.1-.8.5-.2.9-.3 1.6-.3 4.5v15.7c0 2.8 0 3.6.3 4.5.1.3.2.4.8.5l4.3.3v1h-16v-1l3.8-.3c.6 0 .7-.1.8-.5.2-.9.3-1.6.3-4.5v-7.1H91.2v7.1c0 2.8 0 3.6.3 4.5.1.4.2.4.8.5l3.3.3v1H80.8v-1l3.6-.3c.6 0 .7-.1.8-.5.2-.9.3-1.7.3-4.5V12.5c0-2.8 0-3.6-.3-4.5-.2-.4-.2-.4-.9-.4l-3.6-.3v-1h14.8v1l-3.3.3c-.6 0-.7.1-.8.5-.2.9-.3 1.6-.3 4.5v6.9h13.2zm26-13.7c.6.3.9.4 1.3.4s1-.2 2-.5l.8-.3 8.1 24.4c1.2 3.1 1.4 3.3 5.3 3.7v1h-15.3v-1l1.4-.1c2.4 0 3-.4 3-1.6 0-.3 0-.5-.1-.8l-2.1-6.4c-2.5-.1-3-.1-4-.1s-1.5 0-4.2.1l-1.8 5.6c-.2.8-.4 1.6-.4 2 0 .9.5 1.2 2.2 1.2h1.9v1h-11.7v-1c4.4-.1 5.1-.5 6.3-4.2l6.7-19.8-1-2.8 1.6-.8zm-3.2 17.1c1.6.1 2.5.1 3.5.1s1.8 0 3.5-.1l-3.5-10.7-3.5 10.7zm22.6-17.5c.5.8 1 1 2.2 1h20.7c1.7 0 2.2-.2 2.9-1l1 .5c-.7 3.6-.7 4.2-1 8.2h-1c-.5-2.8-.9-3.8-1.6-4.7-.8-.9-2.5-1.5-4.3-1.5H165c-.4 4.2-.4 4.3-.4 5.3v15.1c0 2.8 0 3.6.3 4.5.1.3.2.4.8.5l4.2.3v1h-16.8v-1l4.6-.3c.6 0 .7-.1.8-.5.2-.9.3-1.6.3-4.5V13.1c0-1.6-.1-2.8-.3-5.2h-4.4c-2 0-3.3.8-4.2 2.4-.4.8-.7 1.7-1.3 3.8h-1c.7-4.1.8-4.7 1.3-8.4l.8-.4zm51.6.7c-1 2.8-1.2 3.2-2 6.2h-1c-.3-2.1-.7-3.4-1.4-3.8-.5-.4-2.3-.6-5.7-.6H189c-.2 2.2-.3 3.3-.3 4.6v6.7h2.9c.8 0 2.2 0 2.5-.1.3-.1.3-.1.7-1.6l.6-2.5h1v9.9h-1l-.7-2.5c-.1-.4-.2-.8-.3-1.1-.1-.3-.2-.4-.5-.5-.7-.1-2.6-.2-4-.2h-1.2v7.8c0 1.3.1 2.3.3 4.3 1.4.2 2 .3 3.7.3 3.8 0 5.3-.4 7.7-1.9 1.4-.9 2.4-1.8 3.8-3.1l.8.5c-1.9 3.2-2.1 3.7-3.7 7.4h-1.1c-.3-1.5-.3-1.5-2.7-1.5h-19.2v-1l3.4-.3c.6 0 .7-.1.8-.5.2-.9.3-1.6.3-4.5V12.5c0-2.8 0-3.6-.3-4.5-.1-.4-.1-.4-.8-.5l-2.7-.2v-1h18.6c1.3 0 1.4 0 2.3-.5l.6-.3.8.5zm17-.3c.6.3.9.4 1.3.4s1-.2 2-.5l.8-.3 8.1 24.4c1.2 3.1 1.4 3.3 5.3 3.7v1h-15.3v-1l1.4-.1c2.4 0 3-.4 3-1.6 0-.3 0-.5-.1-.8l-2.1-6.4c-2.5-.1-3-.1-4-.1s-1.5 0-4.2.1l-1.8 5.6c-.2.8-.4 1.6-.4 2 0 .9.5 1.2 2.2 1.2h1.9v1h-11.7v-1c4.4-.1 5.1-.5 6.3-4.2l6.7-19.8-1-2.8 1.6-.8zm-3.2 17.1c1.6.1 2.5.1 3.5.1s1.8 0 3.5-.1l-3.5-10.7-3.5 10.7zm32.3 0c0 3.2.4 5.2 1.2 6.6 1.2 1.8 3.3 3 5.7 3 2.7 0 4.9-1.3 6-3.6.7-1.3 1-3.4 1-5.9V12.5c0-2.8 0-3.6-.3-4.5-.1-.3-.2-.4-.8-.5l-4.2-.2v-1h12.5v1l-4 .3c-.6 0-.7.1-.8.5-.2.9-.3 1.6-.3 4.5v10.2c0 4-.5 6.3-1.7 8.1-1.9 2.8-5 4.3-8.9 4.3-4.4 0-8.1-2-9.9-5.4-1.1-2.2-1.3-3.4-1.3-8.1v-9.1c0-2.8 0-3.6-.3-4.5-.1-.4-.2-.4-.8-.5l-3.8-.3v-1h15.6v1l-3.8.3c-.6 0-.7.1-.8.5-.2.9-.3 1.6-.3 4.5v10.2zM14.5 61.6c0 1.2.1 1.8.3 3.3 1.6.2 2.6.2 4.5.2 4 0 4.6-.4 6-3.9h.7l-1 6.3h-1v-.6c0-.6 0-.6-.7-.6H5.6v-.7l3.6-.2c.4 0 .5-.1.6-.4.2-.7.2-1.2.2-3.4v-12c0-2.1 0-2.7-.2-3.4 0-.2-.1-.2-.5-.3l-3.5-.2V45h12.9v.7l-3.3.2c-.5 0-.5.1-.6.4-.2.7-.2 1.2-.2 3.4v11.9zM45 44.7c-.8 2.1-.9 2.5-1.6 4.7h-.7c-.2-1.6-.6-2.6-1-2.9-.4-.3-1.8-.5-4.3-.5h-1.7c-.2 1.7-.3 2.5-.3 3.5v5.1h2.2c.6 0 1.7 0 1.9-.1.2-.1.2-.1.5-1.2l.4-1.9h.7v7.5h-.7l-.4-1.7c-.1-.3-.1-.6-.2-.9-.1-.3-.1-.3-.4-.4-.5-.1-2-.2-3-.2h-.9v6c0 1 .1 1.7.3 3.3 1.1.2 1.6.2 2.9.2 2.9 0 4.1-.3 5.9-1.4 1-.7 1.8-1.3 2.9-2.4l.6.4c-1.4 2.4-1.6 2.8-2.8 5.7h-.8c-.2-1.2-.2-1.2-2.1-1.2H27.6v-.7l2.6-.2c.5 0 .5-.1.6-.4.2-.7.2-1.2.2-3.4v-12c0-2.1 0-2.7-.2-3.4-.1-.3-.1-.3-.6-.4l-2.2-.1V45h14.2c1 0 1 0 1.7-.4l.4-.3.7.4zm18.8-.1c.3 3.2.3 3.7.4 7.1h-.7c-1-4.4-2.4-6.1-5-6.1-2 0-3.5 1.4-3.5 3.2 0 1.6.9 2.5 4.1 4.4 2.9 1.6 3 1.8 3.9 2.7 1 1 1.6 2.5 1.6 4.1 0 4-3.5 6.9-8.3 6.9-1.8 0-3.7-.4-5.6-1.2-.6-.3-.8-.4-1.1-.4-.3 0-.5.2-.9 1l-.8-.4 2.3-7 .7.2c0 .6-.1 1.4-.1 1.7 0 1.5.3 2.6 1.1 3.4.9 1 2.4 1.6 4.1 1.6 2.8 0 4.6-1.6 4.6-4.1 0-1.7-.8-2.6-4-4.4-2.1-1.2-2.7-1.7-3.5-2.6-.8-1-1.2-2.3-1.2-3.7 0-3.7 2.7-6.6 6.2-6.6.9 0 1.5.1 2.6.4.6.2.9.2 1.1.2.4 0 .7-.1 1.1-.5h.9zm21-.1c.4.2.7.3 1 .3.3 0 .7-.1 1.5-.4l.6-.2 6.2 18.6c.9 2.4 1.1 2.5 4 2.8v.7H86.5v-.7l1.1-.1c1.8 0 2.3-.3 2.3-1.2 0-.2 0-.4-.1-.6l-1.6-4.9c-1.9-.1-2.3-.1-3.1-.1-.8 0-1.1 0-3.2.1l-1.4 4.3c-.2.6-.3 1.2-.3 1.5 0 .7.4.9 1.7.9h1.4v.7h-8.9v-.7c3.4-.1 3.9-.4 4.8-3.2l5.1-15.1-.7-2.1 1.2-.6zm-2.4 13c1.2.1 1.9.1 2.7.1s1.4 0 2.7-.1L85 49.4l-2.6 8.1z"/><path class="st0" d="M100.6 45h2.6c1.4 0 2.8-.1 5.4-.3l7.2 14.2 5.8-14c1.2.1 1.8.1 2.7.1.8 0 2.4-.1 4.4-.3l.2.7c-1.3.2-2.7.4-3.6.7-.8.3-.9.4-.9 1.1 0 1.3 1.6 8.8 3.3 15.7.6 2.5.7 2.6 4.8 2.8v.7h-13.3v-.7c3.5-.2 4.1-.4 4.1-1.1 0-.3-.1-.6-.1-1l-2.5-12.2-6 14.4h-.2L106.9 51l-1.3 10c-.1.7-.1 1.5-.1 2.2 0 1.8.2 1.9 4 2.4v.7H97.8v-.7c3.1-.4 4.4-.6 4.9-.9.5-.3 1-1.3 1.2-3.1l1.6-11.3c.1-.3.1-.5.1-1 0-1.2-.4-2.2-1.3-2.9-.6-.5-.6-.5-3.8-.6l.1-.8zm55.2 10.8c0 6.2-5.3 11.1-11.9 11.1-6.9 0-12.2-5-12.2-11.3 0-2.9 1.6-6.4 3.9-8.3 2.2-1.9 5.1-2.9 8-2.9 6.7 0 12.2 5.1 12.2 11.4zm-16.9-7.9c-1.5 2-2.4 4.8-2.4 7.8 0 5.7 3.1 10.1 7.2 10.1 4 0 7.1-4.4 7.1-10.1 0-3.2-.8-5.6-2.4-7.6-1.5-1.7-3-2.6-4.9-2.6-1.7.1-3.5 1-4.6 2.4zm27 9.7c0 2.4.3 4 1 5 .9 1.4 2.5 2.3 4.3 2.3 2 0 3.7-1 4.6-2.8.5-1 .8-2.6.8-4.5v-7.9c0-2.1 0-2.7-.2-3.4-.1-.3-.1-.3-.6-.4l-3.3-.2V45h9.5v.7l-3.1.2c-.5 0-.5.1-.6.4-.2.7-.2 1.2-.2 3.4v7.7c0 3.1-.3 4.8-1.3 6.2-1.4 2.1-3.8 3.3-6.8 3.3-3.4 0-6.1-1.5-7.5-4.1-.8-1.7-1-2.6-1-6.2v-6.9c0-2.1 0-2.7-.2-3.4-.1-.3-.1-.3-.6-.4l-2.9-.2V45h11.9v.7l-2.9.2c-.5 0-.5.1-.6.4-.2.7-.2 1.2-.2 3.4v7.9zm27-12.6c4 0 5.7.2 7 .8 1.8.9 2.8 2.3 2.8 4.2 0 1.4-.5 2.7-1.4 3.4-.9.7-1.8 1-3.9 1.2 1.9.4 3.2 1.9 4.7 5.8 1.3 3 2.8 4.6 4.5 4.6.8 0 1.5-.4 2.7-1.3l.6.6c-2.2 2-3.2 2.5-5.1 2.5-2.6 0-4.6-1.2-6-3.4-.6-1-1.2-2.4-2.4-5.3-1-2.5-1.6-3.1-3.6-3.1h-.5v6.7c0 2.1 0 2.7.2 3.4.1.3.1.3.6.4l3.1.2v.7h-12.8v-.7l3.6-.2c.4 0 .5-.1.6-.4.2-.7.2-1.3.2-3.4v-12c0-2.1 0-2.7-.2-3.4-.1-.3-.1-.3-.6-.4l-3.2-.2V45h9.1zm-.7 8.9c3.7-.1 5.7-1.4 5.7-3.9 0-1.7-1-2.9-2.8-3.5-.8-.2-1.5-.3-2.8-.3-.1 1.6-.1 2.2-.1 3.5v4.2zm36.1-9.2c-.8 2.1-.9 2.5-1.6 4.7h-.7c-.2-1.6-.6-2.6-1-2.9-.4-.3-1.8-.5-4.3-.5H219c-.2 1.7-.3 2.5-.3 3.5v5.1h2.2c.6 0 1.7 0 1.9-.1.2-.1.2-.1.5-1.2l.4-1.9h.7v7.5h-.7l-.5-1.9c-.1-.3-.1-.6-.2-.9-.1-.3-.1-.3-.4-.4-.5-.1-2-.2-3-.2h-.9v6c0 1 .1 1.7.3 3.3 1.1.2 1.6.2 2.9.2 2.9 0 4.1-.3 5.9-1.4 1-.7 1.8-1.3 2.9-2.4l.6.4c-1.4 2.4-1.6 2.8-2.8 5.7h-.8c-.2-1.2-.2-1.2-2.1-1.2H211v-.7l2.6-.2c.5 0 .5-.1.6-.4.2-.7.2-1.2.2-3.4v-12c0-2.1 0-2.7-.2-3.4-.1-.3-.1-.3-.6-.4l-2.1-.2V45h14.2c1 0 1 0 1.7-.4l.4-.3.5.4zm11.4 12.9c0 2.4.3 4 1 5 .9 1.4 2.5 2.3 4.3 2.3 2 0 3.7-1 4.6-2.8.5-1 .8-2.6.8-4.5v-7.9c0-2.1 0-2.7-.2-3.4-.1-.3-.1-.3-.6-.4l-3.3-.2V45h9.5v.7l-3.1.2c-.5 0-.5.1-.6.4-.2.7-.2 1.2-.2 3.4v7.7c0 3.1-.3 4.8-1.3 6.2-1.4 2.1-3.8 3.3-6.8 3.3-3.4 0-6.1-1.5-7.5-4.1-.8-1.7-1-2.6-1-6.2v-6.9c0-2.1 0-2.7-.2-3.4-.1-.3-.1-.3-.6-.4l-2.9-.2V45h11.9v.7l-2.9.2c-.5 0-.5.1-.6.4-.2.7-.2 1.2-.2 3.4v7.9zm30.9-13c.3 3.2.3 3.7.4 7.1h-.7c-1-4.4-2.4-6.1-5-6.1-2 0-3.5 1.4-3.5 3.2 0 1.6.9 2.5 4.1 4.4 2.9 1.6 3 1.8 3.9 2.7 1 1 1.6 2.5 1.6 4.1 0 4-3.5 6.9-8.3 6.9-1.8 0-3.7-.4-5.6-1.2-.6-.3-.8-.4-1.1-.4-.3 0-.5.2-.9 1l-.8-.4 2.3-7 .7.2c0 .6-.1 1.4-.1 1.7 0 1.5.3 2.6 1.1 3.4.9 1 2.4 1.6 4.1 1.6 2.8 0 4.6-1.6 4.6-4.1 0-1.7-.8-2.6-4-4.4-2.1-1.2-2.7-1.7-3.5-2.6-.8-1-1.2-2.3-1.2-3.7 0-3.7 2.7-6.6 6.2-6.6.9 0 1.5.1 2.6.4.6.2.9.2 1.1.2.4 0 .7-.1 1.1-.5h.9zm21.7.1c-.8 2.1-.9 2.5-1.6 4.7h-.7c-.2-1.6-.6-2.6-1-2.9-.4-.3-1.8-.5-4.3-.5H283c-.2 1.7-.3 2.5-.3 3.5v5.1h2.2c.6 0 1.7 0 1.9-.1.2-.1.2-.1.5-1.2l.4-1.9h.7v7.5h-.7l-.5-1.9c-.1-.3-.1-.6-.2-.9-.1-.3-.1-.3-.4-.4-.5-.1-2-.2-3-.2h-.9v6c0 1 .1 1.7.3 3.3 1.1.2 1.6.2 2.9.2 2.9 0 4.1-.3 5.9-1.4 1-.7 1.8-1.3 2.9-2.4l.6.4c-1.4 2.4-1.6 2.8-2.8 5.7h-.8c-.2-1.2-.2-1.2-2.1-1.2H275v-.7l2.6-.2c.5 0 .5-.1.6-.4.2-.7.2-1.2.2-3.4v-12c0-2.1 0-2.7-.2-3.4-.1-.3-.1-.3-.6-.4l-2.1-.2V45h14.2c1 0 1 0 1.7-.4l.4-.3.5.4zm18.8-.1c.3 3.2.3 3.7.4 7.1h-.7c-1-4.4-2.4-6.1-5-6.1-2 0-3.5 1.4-3.5 3.2 0 1.6.9 2.5 4.1 4.4 2.9 1.6 3 1.8 3.9 2.7 1 1 1.6 2.5 1.6 4.1 0 4-3.5 6.9-8.3 6.9-1.8 0-3.7-.4-5.6-1.2-.6-.3-.8-.4-1.1-.4-.3 0-.5.2-.9 1l-.8-.4 2.3-7 .7.2c0 .6-.1 1.4-.1 1.7 0 1.5.3 2.6 1.1 3.4.9 1 2.4 1.6 4.1 1.6 2.8 0 4.6-1.6 4.6-4.1 0-1.7-.8-2.6-4-4.4-2.1-1.2-2.7-1.7-3.5-2.6-.8-1-1.2-2.3-1.2-3.7 0-3.7 2.7-6.6 6.2-6.6.9 0 1.5.1 2.6.4.6.2.9.2 1.1.2.4 0 .7-.1 1.1-.5h.9z"/></svg>