<svg id="Calque_1" xmlns="http://www.w3.org/2000/svg" viewBox="0 0 755.3 155.4"><style>.st0{fill:#fff}</style><path class="st0" d="M42.1 74l-13.5 31.3h27.2L42.1 74zm-21.8 50.6c-3.1 7-.7 9.9 10.1 9.9v2.7H0v-2.7c10.9 0 11.6-2.2 15.6-11.3L44.2 57h1.7l28.7 66.2c4 9.1 4.7 11.3 15.5 11.3v2.7h-36v-2.7c10.8 0 13.3-2.7 10.1-9.9L58 110.1H26.5l-6.2 14.5z"/><path class="st0" d="M107.3 119.2c0 13 1.7 15.2 12.5 15.2v2.7H90.1v-2.7c10.8 0 12.3-2.2 12.3-15.2V77c0-13-1.6-15.1-12.3-15.1v-2.7h22.1l27.6 63.3 27.4-63.3h20.4v2.7c-10.9 0-12.5 2.1-12.5 15.1v42.3c0 13 1.6 15.2 12.5 15.2v2.7h-35.1v-2.7c10.8 0 12.4-2.2 12.4-15.2V76.9l-27 62.5h-1.7L107.3 73v46.2zm103.5-21c0 16.1 8.6 36 30.9 36 22.5 0 31.1-19.9 31.1-36S264.2 62 241.7 62c-22.3 0-30.9 20-30.9 36.2m31 41.2c-23.8 0-43.3-18.6-43.3-41.2S218 57 241.8 57c23.9 0 43.4 18.6 43.4 41.2s-19.5 41.2-43.4 41.2m148.8-58.3c0-9.4-5.3-17.2-16.6-17.2h-11.4v34.3H374c11.2.1 16.6-7.6 16.6-17.1m1 36.8c7.7 9.1 16.4 15.6 24.3 16.5v2.7h-21.5L368.6 103h-6.1v16.3c0 13 1.6 15.2 12.5 15.2v2.7h-22.8v-9.9c-5.7 7.9-15.2 12.1-25.9 12.1-17.2 0-31.2-10.8-31.2-31.2V77c0-13-1.6-15.1-12.4-15.1v-2.7h35.1v2.7c-10.8 0-12.4 2.1-12.4 15.1v31.9c0 16.9 9.8 24.7 22.8 24.7 13.7 0 23.9-7.8 23.9-24.7V77c0-13-1.7-15.1-12.5-15.1v-2.7h34.3c18.1 0 28 9.9 28 22 0 11.1-8.1 20-23.1 21.7l12.8 15z"/><path class="st0" d="M415.2 134.5c10.8 0 12.4-2.2 12.4-15.2V77c0-13-1.6-15.1-12.4-15.1v-2.7h59.3l1.2 17.2H473l-.6-2.6c-1.8-6.8-3.1-9.8-15.1-9.8h-19.2v29.5h6.5c13 0 15.1-1.6 15.1-12.5h2.7v29.8h-2.7c0-10.9-2.1-12.5-15.1-12.5h-6.5v19c0 13 1.6 15.1 12.4 15.1h11.2c12 0 13.4-3 15.1-9.9l.6-2.6h2.7l-1 17.3h-63.7v-2.7zm123-72.6v-2.7h30.4v2.7c-10.8 0-12.5 2.1-12.5 15.1v31.2c0 20.4-14 31.2-31.3 31.2-17.2 0-31.2-10.8-31.2-31.2V77c0-13-1.6-15.1-12.4-15.1v-2.7h35.1v2.7C505.6 61.9 504 64 504 77v31.9c0 16.9 9.7 24.7 22.8 24.7 13.6 0 23.9-7.8 23.9-24.7V77c0-13-1.7-15.1-12.5-15.1m38.1 77.5h-2.6v-28.6h2.6s.3 23.4 24.1 23.4c9.2 0 16.3-6 16.3-14.3 0-6-6-11-15-15.7l-12.5-6.4c-7.5-3.9-14.4-11.6-14.4-21.5 0-10.8 9-19.4 21.6-19.4 7.7 0 12 2.5 15.9 5.3 1.6-1.3 3.1-3.2 3.8-6h2.6v28.6H616c-.9-10.4-4.8-22.8-19.9-22.8-7.3 0-12.6 5.1-12.6 11.6 0 6.8 4.6 10.3 15.7 16.1l12.5 6.4c10 5.1 13.5 12.6 13.5 19.8 0 14.2-11.3 23.4-24.7 23.4-9.9 0-16.1-5.2-20.3-6.1-1.7 1.4-3.2 3.3-3.9 6.2m54.4-4.9c10.8 0 12.4-2.2 12.4-15.2V77c0-13-1.6-15.1-12.4-15.1v-2.7H690l1.2 17.2h-2.7l-.7-2.6C686 67 684.7 64 672.7 64h-19.2v29.5h6.5c13 0 15.1-1.6 15.1-12.5h2.7v29.8H675c0-10.9-2.1-12.5-15.1-12.5h-6.5v19c0 13 1.6 15.1 12.4 15.1H677c12 0 13.4-3 15.1-9.9l.6-2.6h2.7l-1 17.3h-63.7v-2.7zm75.8 4.9h-2.6v-28.6h2.6s.3 23.4 24.1 23.4c9.2 0 16.3-6 16.3-14.3 0-6-6-11-15-15.7l-12.5-6.4c-7.5-3.9-14.4-11.6-14.4-21.5 0-10.8 9-19.4 21.6-19.4 7.7 0 12 2.5 15.9 5.3 1.6-1.3 3.1-3.2 3.8-6h2.6v28.6h-2.7c-.9-10.4-4.8-22.8-19.9-22.8-7.3 0-12.6 5.1-12.6 11.6 0 6.8 4.6 10.3 15.7 16.1l12.5 6.4c10 5.1 13.5 12.6 13.5 19.8 0 14.2-11.3 23.4-24.7 23.4-9.9 0-16.1-5.2-20.3-6.1-1.7 1.4-3.2 3.3-3.9 6.2M218.8 63.2c3.3-19.9-9.8-31.5-24-31.5-14.1 0-23.8 8.8-23.8 22.9V60c1.2-.3 2.5-.4 3.8-.4 1.7 0 3.4.3 5 .7-1.6-3-2.3-6.4-2.3-9.6 0-7.3 5.4-15.5 17.6-15.5 10.9 0 22.8 11.2 15.3 28.9-6.7 1.6-9.7 5.7-9.7 9.8 0 2.4 2.1 6.4 6.7 6.4 4.5 0 7.6-4.2 9.5-9.5.3-1 .6-1.9.9-2.8h.7c.2 0 .5.1.7.1.1-.6.2-1.2.4-1.8.3-1 .6-2 1-2.9-.5-.1-1.1-.2-1.8-.2"/><path class="st0" d="M239 10.7h-1.4l-.3-1.4c-1-3.6-1.6-5.2-7.9-5.2h-8.9v28.8c0 6.8.9 7.9 6.5 7.9v1.4h-18.4v-1.4c5.6 0 6.5-1.1 6.5-7.9V4.1h-8.9c-6.2 0-6.9 1.6-7.9 5.2l-.3 1.4h-1.4l.6-9.2h41.3l.5 9.2zm3.1 30.1c5.6 0 6.5-1.2 6.5-8v-22c0-6.8-.8-7.9-6.5-7.9V1.5h31l.6 9h-1.4l-.3-1.4c-1-3.5-1.6-5.1-7.9-5.1H254v15.4h3.4c6.8 0 7.9-.8 7.9-6.5h1.4v15.6h-1.4c0-5.7-1.1-6.5-7.9-6.5H254v9.9c0 6.8.8 7.9 6.5 7.9h5.8c6.3 0 7-1.6 7.9-5.2l.3-1.4h1.4l-.5 9h-33.3v-1.4zM308.3 13c0-4.9-2.7-9-8.6-9h-6v18h6c5.8 0 8.6-4.1 8.6-9m.6 19.2c4 4.8 8.6 8.2 12.6 8.6v1.4h-11.2l-13.5-17.9h-3.2v8.5c0 6.8.8 7.9 6.5 7.9v1.4h-18.4v-1.4c5.6 0 6.5-1.1 6.5-7.9v-22c0-6.8-.8-7.9-6.5-7.9V1.5h17.9c9.4 0 14.6 5.2 14.6 11.5 0 5.9-4.4 10.6-12.1 11.4l6.8 7.8zM350.4 13c0-4.9-2.7-9-8.6-9h-6v18h6c5.9 0 8.6-4.1 8.6-9m.6 19.2c4 4.8 8.6 8.2 12.6 8.6v1.4h-11.2L339 24.4h-3.2v8.5c0 6.8.8 7.9 6.5 7.9v1.4h-18.4v-1.4c5.6 0 6.5-1.1 6.5-7.9V10.8c0-6.8-.8-7.9-6.5-7.9V1.5h17.9c9.4 0 14.6 5.2 14.6 11.5 0 5.9-4.4 10.6-12.1 11.4l6.7 7.8zm15 8.6c5.6 0 6.5-1.2 6.5-8v-22c0-6.8-.8-7.9-6.5-7.9V1.5h31l.6 9h-1.4l-.3-1.4C395 5.6 394.3 4 388 4h-10.1v15.4h3.4c6.8 0 7.9-.8 7.9-6.5h1.4v15.6h-1.4c0-5.7-1.1-6.5-7.9-6.5h-3.4v9.9c0 6.8.8 7.9 6.5 7.9h5.9c6.3 0 7-1.6 7.9-5.2l.3-1.4h1.4l-.5 9H366v-1.4zm42.3 2.6H407v-15h1.4s.1 12.2 12.6 12.2c4.8 0 8.5-3.1 8.5-7.5 0-3.1-3.1-5.8-7.8-8.2l-6.5-3.3c-4-2-7.5-6-7.5-11.2 0-5.6 4.7-10.1 11.3-10.1 4 0 6.2 1.3 8.3 2.8.8-.7 1.6-1.7 2-3.1h1.4v15H429c-.5-5.4-2.5-11.9-10.4-11.9-3.8 0-6.6 2.6-6.6 6 0 3.5 2.4 5.4 8.2 8.4l6.5 3.3c5.2 2.7 7.1 6.6 7.1 10.3 0 7.4-5.9 12.2-12.9 12.2-5.2 0-8.4-2.7-10.6-3.2-.8.8-1.6 1.8-2 3.3m58.9-11.5c0 6.8.8 7.9 6.3 7.9h.3c13.3 0 16.1-9.9 16.1-17.9 0-8-2.9-17.9-16.1-17.9h-6.6v27.9zm-11.9 8.9c5.6 0 6.4-1.2 6.4-8v-22c0-6.8-.8-7.9-6.4-7.9V1.5h18.4c15.8 0 22.7 9.2 22.7 20.4s-6.9 20.4-22.7 20.4h-18.4v-1.5zm46.7 0c5.6 0 6.5-1.2 6.5-8v-22c0-6.8-.8-7.9-6.5-7.9V1.5h31l.6 9h-1.4l-.3-1.4c-1-3.5-1.7-5.1-7.9-5.1h-10.1v15.4h3.4c6.8 0 7.9-.8 7.9-6.5h1.4v15.6h-1.4c0-5.7-1.1-6.5-7.9-6.5h-3.4v9.9c0 6.8.8 7.9 6.5 7.9h5.9c6.3 0 7-1.6 7.9-5.2l.3-1.4h1.4l-.5 9H502v-1.4zm42.3 2.6H543v-15h1.4s.1 12.2 12.6 12.2c4.8 0 8.5-3.1 8.5-7.5 0-3.1-3.1-5.8-7.8-8.2l-6.5-3.3c-3.9-2-7.5-6-7.5-11.2 0-5.6 4.7-10.1 11.3-10.1 4 0 6.3 1.3 8.3 2.8.8-.7 1.6-1.7 2-3.1h1.4v15H565c-.5-5.4-2.5-11.9-10.4-11.9-3.8 0-6.6 2.6-6.6 6 0 3.5 2.4 5.4 8.2 8.4l6.5 3.3c5.2 2.7 7.1 6.6 7.1 10.3 0 7.4-5.9 12.2-12.9 12.2-5.2 0-8.4-2.7-10.6-3.2-.8.8-1.6 1.8-2 3.3"/></svg>